<svg width="9" height="11" viewBox="0 0 9 11" fill="none" xmlns="http://www.w3.org/2000/svg">
<path id="Arrow 2" d="M8.35012 1.45507C8.52761 1.24352 8.5 0.928148 8.28845 0.750661C8.0769 0.573175 7.76152 0.600788 7.58403 0.812337L8.35012 1.45507ZM7.96707 1.13372L8.35009 1.45511L8.35011 1.45509L7.96707 1.13372ZM4.54171 10.6609C4.75324 10.8384 5.06862 10.8108 5.24612 10.5993L8.13869 7.15208C8.3162 6.94055 8.28861 6.62517 8.07707 6.44767C7.86554 6.27016 7.55016 6.29775 7.37266 6.50929L4.80148 9.57345L1.73732 7.00227C1.52579 6.82477 1.21041 6.85236 1.03291 7.06389C0.855404 7.27543 0.882993 7.59081 1.09453 7.76831L4.54171 10.6609ZM7.58403 0.812337L7.58402 0.812352L8.35011 1.45509L8.35012 1.45507L7.58403 0.812337ZM7.58404 0.812327C6.604 1.9803 3.91523 5.18005 4.365 10.3214L5.3612 10.2343C4.94826 5.5139 7.40173 2.58533 8.35009 1.45511L7.58404 0.812327Z" fill="white"/>
</svg>
