<svg width="12" height="8" viewBox="0 0 12 8" fill="none" xmlns="http://www.w3.org/2000/svg">
<path id="Arrow 3" d="M1.21737 2.38548C0.957873 2.29105 0.67096 2.42486 0.576532 2.68436C0.482103 2.94385 0.615916 3.23076 0.875411 3.32519L1.21737 2.38548ZM1.04641 2.85534L1.21742 2.38549L1.21739 2.38548L1.04641 2.85534ZM11.1706 2.81565C11.265 2.55616 11.1312 2.26924 10.8717 2.17479L6.64312 0.635662C6.38363 0.541214 6.09671 0.675005 6.00226 0.934493C5.90781 1.19398 6.0416 1.4809 6.30109 1.57535L10.0599 2.94346L8.69174 6.70222C8.59729 6.96171 8.73108 7.24863 8.99057 7.34308C9.25006 7.43753 9.53698 7.30374 9.63143 7.04425L11.1706 2.81565ZM0.875411 3.32519L0.875429 3.3252L1.21739 2.38548L1.21737 2.38548L0.875411 3.32519ZM0.875398 3.32519C2.30813 3.84666 6.23452 5.27889 10.912 3.09779L10.4894 2.19148C6.19492 4.19398 2.60383 2.89011 1.21742 2.38549L0.875398 3.32519Z" fill="white"/>
</svg>
