<svg width="6" height="11" viewBox="0 0 6 11" fill="none" xmlns="http://www.w3.org/2000/svg">
<path id="Arrow 1" d="M3.50011 10C3.50013 10.2762 3.724 10.5 4.00014 10.5C4.27629 10.5 4.50013 10.2761 4.50011 9.99997L3.50011 10ZM4.00011 9.99998L3.50011 9.99999L3.50011 10L4.00011 9.99998ZM0.500147 0.499975C0.224005 0.499973 0.000145181 0.723828 0.00014295 0.99997L0.000105882 5.49997C0.000103568 5.77611 0.223959 5.99997 0.500102 5.99997C0.776244 5.99998 1.0001 5.77612 1.00011 5.49998L1.00014 1.49998L5.00014 1.50001C5.27628 1.50001 5.50014 1.27616 5.50014 1.00002C5.50014 0.723873 5.27629 0.500014 5.00015 0.500012L0.500147 0.499975ZM4.50011 9.99997L4.50011 9.99995L3.50011 10L3.50011 10L4.50011 9.99997ZM4.50011 9.99998C4.50011 8.4753 4.50307 4.29585 0.853699 0.646424L0.146587 1.35353C3.49713 4.70412 3.50011 8.52459 3.50011 9.99999L4.50011 9.99998Z" fill="white"/>
</svg>
