<svg width="14" height="8" viewBox="0 0 14 8" fill="none" xmlns="http://www.w3.org/2000/svg">
<path d="M3.66477 7.13636C3.03409 7.13636 2.49006 6.99716 2.03267 6.71875C1.57812 6.4375 1.22727 6.04545 0.980114 5.54261C0.735795 5.03693 0.613636 4.44886 0.613636 3.77841C0.613636 3.10795 0.735795 2.51705 0.980114 2.00568C1.22727 1.49148 1.57102 1.09091 2.01136 0.803977C2.45455 0.514205 2.97159 0.369318 3.5625 0.369318C3.90341 0.369318 4.24006 0.426136 4.57244 0.539772C4.90483 0.653409 5.20739 0.838068 5.48011 1.09375C5.75284 1.34659 5.97017 1.68182 6.1321 2.09943C6.29403 2.51705 6.375 3.03125 6.375 3.64205V4.06818H1.32955V3.19886H5.35227C5.35227 2.82955 5.27841 2.5 5.13068 2.21023C4.9858 1.92045 4.77841 1.69176 4.50852 1.52415C4.24148 1.35653 3.92614 1.27273 3.5625 1.27273C3.16193 1.27273 2.81534 1.37216 2.52273 1.57102C2.23295 1.76705 2.00994 2.02273 1.85369 2.33807C1.69744 2.65341 1.61932 2.99148 1.61932 3.35227V3.93182C1.61932 4.42614 1.70455 4.84517 1.875 5.18892C2.0483 5.52983 2.28835 5.78977 2.59517 5.96875C2.90199 6.14489 3.25852 6.23295 3.66477 6.23295C3.92898 6.23295 4.16761 6.19602 4.38068 6.12216C4.59659 6.04545 4.78267 5.93182 4.93892 5.78125C5.09517 5.62784 5.21591 5.4375 5.30114 5.21023L6.27273 5.48295C6.17045 5.8125 5.99858 6.10227 5.7571 6.35227C5.51563 6.59943 5.21733 6.79261 4.86222 6.93182C4.5071 7.06818 4.10795 7.13636 3.66477 7.13636ZM8.91051 3.0625V7H7.90483V0.454545H8.87642V1.47727H8.96165C9.11506 1.14489 9.34801 0.877841 9.66051 0.676136C9.97301 0.471591 10.3764 0.369318 10.8707 0.369318C11.3139 0.369318 11.7017 0.460227 12.0341 0.642045C12.3665 0.821023 12.625 1.09375 12.8097 1.46023C12.9943 1.82386 13.0866 2.28409 13.0866 2.84091V7H12.081V2.90909C12.081 2.39489 11.9474 1.99432 11.6804 1.70739C11.4134 1.41761 11.0469 1.27273 10.581 1.27273C10.2599 1.27273 9.97301 1.34233 9.72017 1.48153C9.47017 1.62074 9.27273 1.82386 9.12784 2.09091C8.98295 2.35795 8.91051 2.68182 8.91051 3.0625Z" fill="white"/>
</svg>
