<svg width="13" height="8" viewBox="0 0 13 8" fill="none" xmlns="http://www.w3.org/2000/svg">
<path d="M3.66477 7.13636C3.03409 7.13636 2.49006 6.99716 2.03267 6.71875C1.57812 6.4375 1.22727 6.04545 0.980114 5.54261C0.735795 5.03693 0.613636 4.44886 0.613636 3.77841C0.613636 3.10795 0.735795 2.51705 0.980114 2.00568C1.22727 1.49148 1.57102 1.09091 2.01136 0.803977C2.45455 0.514205 2.97159 0.369318 3.5625 0.369318C3.90341 0.369318 4.24006 0.426136 4.57244 0.539772C4.90483 0.653409 5.20739 0.838068 5.48011 1.09375C5.75284 1.34659 5.97017 1.68182 6.1321 2.09943C6.29403 2.51705 6.375 3.03125 6.375 3.64205V4.06818H1.32955V3.19886H5.35227C5.35227 2.82955 5.27841 2.5 5.13068 2.21023C4.9858 1.92045 4.77841 1.69176 4.50852 1.52415C4.24148 1.35653 3.92614 1.27273 3.5625 1.27273C3.16193 1.27273 2.81534 1.37216 2.52273 1.57102C2.23295 1.76705 2.00994 2.02273 1.85369 2.33807C1.69744 2.65341 1.61932 2.99148 1.61932 3.35227V3.93182C1.61932 4.42614 1.70455 4.84517 1.875 5.18892C2.0483 5.52983 2.28835 5.78977 2.59517 5.96875C2.90199 6.14489 3.25852 6.23295 3.66477 6.23295C3.92898 6.23295 4.16761 6.19602 4.38068 6.12216C4.59659 6.04545 4.78267 5.93182 4.93892 5.78125C5.09517 5.62784 5.21591 5.4375 5.30114 5.21023L6.27273 5.48295C6.17045 5.8125 5.99858 6.10227 5.7571 6.35227C5.51563 6.59943 5.21733 6.79261 4.86222 6.93182C4.5071 7.06818 4.10795 7.13636 3.66477 7.13636ZM12.5412 1.92045L11.6378 2.17614C11.581 2.02557 11.4972 1.87926 11.3864 1.73722C11.2784 1.59233 11.1307 1.47301 10.9432 1.37926C10.7557 1.28551 10.5156 1.23864 10.223 1.23864C9.82244 1.23864 9.48864 1.33097 9.22159 1.51562C8.95739 1.69744 8.82528 1.92898 8.82528 2.21023C8.82528 2.46023 8.91619 2.65767 9.09801 2.80256C9.27983 2.94744 9.56392 3.06818 9.95028 3.16477L10.9219 3.40341C11.5071 3.54545 11.9432 3.76278 12.2301 4.0554C12.517 4.34517 12.6605 4.71875 12.6605 5.17614C12.6605 5.55114 12.5526 5.88636 12.3366 6.18182C12.1236 6.47727 11.8253 6.71023 11.4418 6.88068C11.0582 7.05114 10.6122 7.13636 10.1037 7.13636C9.43608 7.13636 8.88352 6.99148 8.44602 6.7017C8.00852 6.41193 7.73153 5.98864 7.61506 5.43182L8.5696 5.19318C8.66051 5.54545 8.83239 5.80966 9.08523 5.9858C9.34091 6.16193 9.67472 6.25 10.0866 6.25C10.5554 6.25 10.9276 6.15057 11.2031 5.9517C11.4815 5.75 11.6207 5.50852 11.6207 5.22727C11.6207 5 11.5412 4.80966 11.3821 4.65625C11.223 4.5 10.9787 4.38352 10.6491 4.30682L9.55824 4.05114C8.95881 3.90909 8.51847 3.68892 8.23722 3.39062C7.95881 3.08949 7.8196 2.71307 7.8196 2.26136C7.8196 1.89205 7.9233 1.56534 8.13068 1.28125C8.34091 0.997159 8.62642 0.774148 8.98722 0.612216C9.35085 0.450284 9.76278 0.369318 10.223 0.369318C10.8707 0.369318 11.3793 0.511364 11.7486 0.795454C12.1207 1.07955 12.3849 1.45455 12.5412 1.92045Z" fill="white"/>
</svg>
