<svg width="41" height="38" viewBox="0 0 41 38" fill="none" xmlns="http://www.w3.org/2000/svg">
<path d="M17.6648 12.1364C17.0341 12.1364 16.4901 11.9972 16.0327 11.7188C15.5781 11.4375 15.2273 11.0455 14.9801 10.5426C14.7358 10.0369 14.6136 9.44886 14.6136 8.77841C14.6136 8.10795 14.7358 7.51705 14.9801 7.00568C15.2273 6.49148 15.571 6.09091 16.0114 5.80398C16.4545 5.5142 16.9716 5.36932 17.5625 5.36932C17.9034 5.36932 18.2401 5.42614 18.5724 5.53977C18.9048 5.65341 19.2074 5.83807 19.4801 6.09375C19.7528 6.34659 19.9702 6.68182 20.1321 7.09943C20.294 7.51705 20.375 8.03125 20.375 8.64205V9.06818H15.3295V8.19886H19.3523C19.3523 7.82955 19.2784 7.5 19.1307 7.21023C18.9858 6.92045 18.7784 6.69176 18.5085 6.52415C18.2415 6.35653 17.9261 6.27273 17.5625 6.27273C17.1619 6.27273 16.8153 6.37216 16.5227 6.57102C16.233 6.76705 16.0099 7.02273 15.8537 7.33807C15.6974 7.65341 15.6193 7.99148 15.6193 8.35227V8.93182C15.6193 9.42614 15.7045 9.84517 15.875 10.1889C16.0483 10.5298 16.2884 10.7898 16.5952 10.9688C16.902 11.1449 17.2585 11.233 17.6648 11.233C17.929 11.233 18.1676 11.196 18.3807 11.1222C18.5966 11.0455 18.7827 10.9318 18.9389 10.7812C19.0952 10.6278 19.2159 10.4375 19.3011 10.2102L20.2727 10.483C20.1705 10.8125 19.9986 11.1023 19.7571 11.3523C19.5156 11.5994 19.2173 11.7926 18.8622 11.9318C18.5071 12.0682 18.108 12.1364 17.6648 12.1364ZM22.9105 8.0625V12H21.9048V5.45455H22.8764V6.47727H22.9616C23.1151 6.14489 23.348 5.87784 23.6605 5.67614C23.973 5.47159 24.3764 5.36932 24.8707 5.36932C25.3139 5.36932 25.7017 5.46023 26.0341 5.64205C26.3665 5.82102 26.625 6.09375 26.8097 6.46023C26.9943 6.82386 27.0866 7.28409 27.0866 7.84091V12H26.081V7.90909C26.081 7.39489 25.9474 6.99432 25.6804 6.70739C25.4134 6.41761 25.0469 6.27273 24.581 6.27273C24.2599 6.27273 23.973 6.34233 23.7202 6.48153C23.4702 6.62074 23.2727 6.82386 23.1278 7.09091C22.983 7.35795 22.9105 7.68182 22.9105 8.0625Z" fill="white"/>
<path d="M29.9205 33.4545V24.4545H30.892V25.4943H31.0114C31.0852 25.3807 31.1875 25.2358 31.3182 25.0597C31.4517 24.8807 31.642 24.7216 31.8892 24.5824C32.1392 24.4403 32.4773 24.3693 32.9034 24.3693C33.4545 24.3693 33.9403 24.5071 34.3608 24.7827C34.7813 25.0582 35.1094 25.4489 35.3452 25.9545C35.581 26.4602 35.6989 27.0568 35.6989 27.7443C35.6989 28.4375 35.581 29.0384 35.3452 29.5469C35.1094 30.0526 34.7827 30.4446 34.3651 30.723C33.9474 30.9986 33.4659 31.1364 32.9205 31.1364C32.5 31.1364 32.1634 31.0668 31.9105 30.9276C31.6577 30.7855 31.4631 30.625 31.3267 30.446C31.1903 30.2642 31.0852 30.1136 31.0114 29.9943H30.9261V33.4545H29.9205ZM30.9091 27.7273C30.9091 28.2216 30.9815 28.6577 31.1264 29.0355C31.2713 29.4105 31.483 29.7045 31.7614 29.9176C32.0398 30.1278 32.3807 30.233 32.7841 30.233C33.2045 30.233 33.5554 30.1222 33.8366 29.9006C34.1207 29.6761 34.3338 29.375 34.4759 28.9972C34.6207 28.6165 34.6932 28.1932 34.6932 27.7273C34.6932 27.267 34.6222 26.8523 34.4801 26.483C34.3409 26.1108 34.1293 25.8168 33.8452 25.6009C33.5639 25.3821 33.2102 25.2727 32.7841 25.2727C32.375 25.2727 32.0313 25.3764 31.7528 25.5838C31.4744 25.7884 31.2642 26.0753 31.1222 26.4446C30.9801 26.8111 30.9091 27.2386 30.9091 27.7273ZM40.0795 24.4545V25.3068H36.6875V24.4545H40.0795ZM37.6761 22.8864H38.6818V29.125C38.6818 29.4091 38.723 29.6222 38.8054 29.7642C38.8906 29.9034 38.9986 29.9972 39.1293 30.0455C39.2628 30.0909 39.4034 30.1136 39.5511 30.1136C39.6619 30.1136 39.7528 30.108 39.8239 30.0966C39.8949 30.0824 39.9517 30.071 39.9943 30.0625L40.1989 30.9659C40.1307 30.9915 40.0355 31.017 39.9134 31.0426C39.7912 31.071 39.6364 31.0852 39.4489 31.0852C39.1648 31.0852 38.8864 31.0241 38.6136 30.902C38.3438 30.7798 38.1193 30.5938 37.9403 30.3438C37.7642 30.0938 37.6761 29.7784 37.6761 29.3977V22.8864Z" fill="white"/>
<path d="M3.66477 31.1364C3.03409 31.1364 2.49006 30.9972 2.03267 30.7188C1.57812 30.4375 1.22727 30.0455 0.980114 29.5426C0.735795 29.0369 0.613636 28.4489 0.613636 27.7784C0.613636 27.108 0.735795 26.517 0.980114 26.0057C1.22727 25.4915 1.57102 25.0909 2.01136 24.804C2.45455 24.5142 2.97159 24.3693 3.5625 24.3693C3.90341 24.3693 4.24006 24.4261 4.57244 24.5398C4.90483 24.6534 5.20739 24.8381 5.48011 25.0938C5.75284 25.3466 5.97017 25.6818 6.1321 26.0994C6.29403 26.517 6.375 27.0312 6.375 27.642V28.0682H1.32955V27.1989H5.35227C5.35227 26.8295 5.27841 26.5 5.13068 26.2102C4.9858 25.9205 4.77841 25.6918 4.50852 25.5241C4.24148 25.3565 3.92614 25.2727 3.5625 25.2727C3.16193 25.2727 2.81534 25.3722 2.52273 25.571C2.23295 25.767 2.00994 26.0227 1.85369 26.3381C1.69744 26.6534 1.61932 26.9915 1.61932 27.3523V27.9318C1.61932 28.4261 1.70455 28.8452 1.875 29.1889C2.0483 29.5298 2.28835 29.7898 2.59517 29.9688C2.90199 30.1449 3.25852 30.233 3.66477 30.233C3.92898 30.233 4.16761 30.196 4.38068 30.1222C4.59659 30.0455 4.78267 29.9318 4.93892 29.7812C5.09517 29.6278 5.21591 29.4375 5.30114 29.2102L6.27273 29.483C6.17045 29.8125 5.99858 30.1023 5.7571 30.3523C5.51563 30.5994 5.21733 30.7926 4.86222 30.9318C4.5071 31.0682 4.10795 31.1364 3.66477 31.1364ZM12.5412 25.9205L11.6378 26.1761C11.581 26.0256 11.4972 25.8793 11.3864 25.7372C11.2784 25.5923 11.1307 25.473 10.9432 25.3793C10.7557 25.2855 10.5156 25.2386 10.223 25.2386C9.82244 25.2386 9.48864 25.331 9.22159 25.5156C8.95739 25.6974 8.82528 25.929 8.82528 26.2102C8.82528 26.4602 8.91619 26.6577 9.09801 26.8026C9.27983 26.9474 9.56392 27.0682 9.95028 27.1648L10.9219 27.4034C11.5071 27.5455 11.9432 27.7628 12.2301 28.0554C12.517 28.3452 12.6605 28.7187 12.6605 29.1761C12.6605 29.5511 12.5526 29.8864 12.3366 30.1818C12.1236 30.4773 11.8253 30.7102 11.4418 30.8807C11.0582 31.0511 10.6122 31.1364 10.1037 31.1364C9.43608 31.1364 8.88352 30.9915 8.44602 30.7017C8.00852 30.4119 7.73153 29.9886 7.61506 29.4318L8.5696 29.1932C8.66051 29.5455 8.83239 29.8097 9.08523 29.9858C9.34091 30.1619 9.67472 30.25 10.0866 30.25C10.5554 30.25 10.9276 30.1506 11.2031 29.9517C11.4815 29.75 11.6207 29.5085 11.6207 29.2273C11.6207 29 11.5412 28.8097 11.3821 28.6562C11.223 28.5 10.9787 28.3835 10.6491 28.3068L9.55824 28.0511C8.95881 27.9091 8.51847 27.6889 8.23722 27.3906C7.95881 27.0895 7.8196 26.7131 7.8196 26.2614C7.8196 25.892 7.9233 25.5653 8.13068 25.2812C8.34091 24.9972 8.62642 24.7741 8.98722 24.6122C9.35085 24.4503 9.76278 24.3693 10.223 24.3693C10.8707 24.3693 11.3793 24.5114 11.7486 24.7955C12.1207 25.0795 12.3849 25.4545 12.5412 25.9205Z" fill="white"/>
<path d="M33.4999 21C33.4999 21.2762 33.7238 21.5 33.9999 21.5C34.276 21.5 34.4999 21.2761 34.4999 21L33.4999 21ZM33.9999 21L33.4999 21L33.4999 21L33.9999 21ZM30.4999 11.5C30.2238 11.5 29.9999 11.7238 29.9999 12L29.9999 16.5C29.9999 16.7761 30.2237 17 30.4999 17C30.776 17 30.9999 16.7761 30.9999 16.5L30.9999 12.5L34.9999 12.5C35.276 12.5 35.4999 12.2762 35.4999 12C35.4999 11.7239 35.276 11.5 34.9999 11.5L30.4999 11.5ZM34.4999 21L34.4999 21L33.4999 21L33.4999 21L34.4999 21ZM34.4999 21C34.4999 19.4753 34.5028 15.2959 30.8535 11.6464L30.1463 12.3535C33.4969 15.7041 33.4999 19.5246 33.4999 21L34.4999 21Z" fill="white"/>
<path d="M12.3501 12.4551C12.5276 12.2435 12.5 11.9281 12.2884 11.7507C12.0769 11.5732 11.7615 11.6008 11.584 11.8123L12.3501 12.4551ZM11.9671 12.1337L12.3501 12.4551L12.3501 12.4551L11.9671 12.1337ZM8.54171 21.6609C8.75324 21.8384 9.06862 21.8108 9.24612 21.5993L12.1387 18.1521C12.3162 17.9405 12.2886 17.6252 12.0771 17.4477C11.8655 17.2702 11.5502 17.2978 11.3727 17.5093L8.80148 20.5734L5.73732 18.0023C5.52579 17.8248 5.21041 17.8524 5.03291 18.0639C4.8554 18.2754 4.88299 18.5908 5.09453 18.7683L8.54171 21.6609ZM11.584 11.8123L11.584 11.8124L12.3501 12.4551L12.3501 12.4551L11.584 11.8123ZM11.584 11.8123C10.604 12.9803 7.91523 16.18 8.365 21.3214L9.3612 21.2343C8.94826 16.5139 11.4017 13.5853 12.3501 12.4551L11.584 11.8123Z" fill="white"/>
<path d="M16.2174 32.3855C15.9579 32.291 15.671 32.4249 15.5765 32.6844C15.4821 32.9439 15.6159 33.2308 15.8754 33.3252L16.2174 32.3855ZM16.0464 32.8553L16.2174 32.3855L16.2174 32.3855L16.0464 32.8553ZM26.1706 32.8156C26.265 32.5562 26.1312 32.2692 25.8717 32.1748L21.6431 30.6357C21.3836 30.5412 21.0967 30.675 21.0023 30.9345C20.9078 31.194 21.0416 31.4809 21.3011 31.5754L25.0599 32.9435L23.6917 36.7022C23.5973 36.9617 23.7311 37.2486 23.9906 37.3431C24.2501 37.4375 24.537 37.3037 24.6314 37.0443L26.1706 32.8156ZM15.8754 33.3252L15.8754 33.3252L16.2174 32.3855L16.2174 32.3855L15.8754 33.3252ZM15.8754 33.3252C17.3081 33.8467 21.2345 35.2789 25.912 33.0978L25.4894 32.1915C21.1949 34.194 17.6038 32.8901 16.2174 32.3855L15.8754 33.3252Z" fill="white"/>
</svg>
