<svg width="18" height="18" viewBox="0 0 18 18" fill="none" xmlns="http://www.w3.org/2000/svg">
<rect width="18" height="18" fill="#1A1A1A"/>
<g id="Portoflio - Dark" clip-path="url(#clip0_69_3255)">
<rect width="1440" height="2874" transform="translate(-199 -1409)" fill="black"/>
<g id="Projects">
<g id="Frame 5">
<g id="Frame 38">
<g id="Group 13">
<path id="Vector" d="M14.6568 11.828L13.2428 10.414L14.6568 9C15.0282 8.62856 15.3229 8.18759 15.5239 7.70228C15.7249 7.21696 15.8284 6.69681 15.8284 6.1715C15.8284 5.6462 15.7249 5.12605 15.5239 4.64073C15.3229 4.15542 15.0282 3.71445 14.6568 3.343C14.2853 2.97156 13.8444 2.67691 13.359 2.47589C12.8737 2.27487 12.3536 2.1714 11.8283 2.1714C11.303 2.1714 10.7828 2.27487 10.2975 2.47589C9.81218 2.67691 9.37121 2.97156 8.99977 3.343L7.58577 4.757L6.17177 3.343L7.58577 1.929C8.71408 0.818923 10.2353 0.199659 11.8181 0.206104C13.401 0.21255 14.9171 0.844181 16.0364 1.96341C17.1556 3.08265 17.7872 4.5988 17.7937 6.18162C17.8001 7.76444 17.1808 9.28569 16.0708 10.414L14.6568 11.828ZM11.8278 14.657L10.4138 16.071C9.85829 16.6356 9.19652 17.0846 8.46663 17.3922C7.73675 17.6998 6.95319 17.8598 6.16115 17.863C5.36911 17.8662 4.58428 17.7126 3.85191 17.411C3.11954 17.1094 2.45414 16.6658 1.89408 16.1057C1.33402 15.5456 0.890389 14.8802 0.588778 14.1479C0.287167 13.4155 0.133543 12.6307 0.136768 11.8386C0.139994 11.0466 0.300003 10.263 0.607569 9.53314C0.915134 8.80325 1.36417 8.14148 1.92877 7.586L3.34277 6.172L4.75677 7.586L3.34277 9C2.97133 9.37145 2.67668 9.81242 2.47566 10.2977C2.27463 10.783 2.17117 11.3032 2.17117 11.8285C2.17117 12.3538 2.27463 12.874 2.47566 13.3593C2.67668 13.8446 2.97133 14.2856 3.34277 14.657C3.71421 15.0284 4.15518 15.3231 4.6405 15.5241C5.12581 15.7251 5.64597 15.8286 6.17127 15.8286C6.69657 15.8286 7.21673 15.7251 7.70204 15.5241C8.18736 15.3231 8.62833 15.0284 8.99977 14.657L10.4138 13.243L11.8278 14.657ZM11.8278 4.757L13.2428 6.172L6.17177 13.242L4.75677 11.828L11.8278 4.758V4.757Z" fill="white"/>
<g id="gradients/Purple Sky Eased">
<rect x="-19" y="-18" width="156" height="55" rx="4" stroke="url(#paint0_linear_69_3255)" stroke-width="2"/>
</g>
</g>
</g>
</g>
</g>
</g>
<defs>
<linearGradient id="paint0_linear_69_3255" x1="42.3569" y1="62.7066" x2="85.9433" y2="-37.1791" gradientUnits="userSpaceOnUse">
<stop stop-color="#9358F7"/>
<stop offset="0.0666667" stop-color="#9259F7"/>
<stop offset="0.133333" stop-color="#8E5DF6"/>
<stop offset="0.2" stop-color="#8862F5"/>
<stop offset="0.266667" stop-color="#806BF4"/>
<stop offset="0.333333" stop-color="#7575F2"/>
<stop offset="0.4" stop-color="#6882F0"/>
<stop offset="0.466667" stop-color="#5990EE"/>
<stop offset="0.533333" stop-color="#4A9FEB"/>
<stop offset="0.6" stop-color="#3BADE9"/>
<stop offset="0.666667" stop-color="#2EBAE7"/>
<stop offset="0.733333" stop-color="#23C4E5"/>
<stop offset="0.8" stop-color="#1BCDE4"/>
<stop offset="0.866667" stop-color="#15D2E3"/>
<stop offset="0.933333" stop-color="#11D6E2"/>
<stop offset="1" stop-color="#10D7E2"/>
</linearGradient>
<clipPath id="clip0_69_3255">
<rect width="1440" height="2874" fill="white" transform="translate(-199 -1409)"/>
</clipPath>
</defs>
</svg>
