<svg width="12" height="12" viewBox="0 0 12 12" fill="none" xmlns="http://www.w3.org/2000/svg">
<path d="M0.920455 11.4545V2.45455H1.89205V3.49432H2.01136C2.08523 3.38068 2.1875 3.2358 2.31818 3.05966C2.4517 2.88068 2.64205 2.72159 2.8892 2.58239C3.1392 2.44034 3.47727 2.36932 3.90341 2.36932C4.45455 2.36932 4.94034 2.5071 5.3608 2.78267C5.78125 3.05824 6.10938 3.44886 6.34517 3.95455C6.58097 4.46023 6.69886 5.05682 6.69886 5.74432C6.69886 6.4375 6.58097 7.03835 6.34517 7.54688C6.10938 8.05256 5.78267 8.4446 5.36506 8.72301C4.94744 8.99858 4.46591 9.13636 3.92045 9.13636C3.5 9.13636 3.16335 9.06676 2.91051 8.92756C2.65767 8.78551 2.46307 8.625 2.3267 8.44602C2.19034 8.2642 2.08523 8.11364 2.01136 7.99432H1.92614V11.4545H0.920455ZM1.90909 5.72727C1.90909 6.22159 1.98153 6.65767 2.12642 7.03551C2.27131 7.41051 2.48295 7.70455 2.76136 7.91761C3.03977 8.12784 3.38068 8.23295 3.78409 8.23295C4.20455 8.23295 4.5554 8.12216 4.83665 7.90057C5.12074 7.67614 5.33381 7.375 5.47585 6.99716C5.62074 6.61648 5.69318 6.19318 5.69318 5.72727C5.69318 5.26705 5.62216 4.85227 5.48011 4.48295C5.34091 4.1108 5.12926 3.81676 4.84517 3.60085C4.56392 3.3821 4.21023 3.27273 3.78409 3.27273C3.375 3.27273 3.03125 3.37642 2.75284 3.58381C2.47443 3.78835 2.2642 4.07528 2.12216 4.4446C1.98011 4.81108 1.90909 5.23864 1.90909 5.72727ZM11.0795 2.45455V3.30682H7.6875V2.45455H11.0795ZM8.67614 0.886364H9.68182V7.125C9.68182 7.40909 9.72301 7.62216 9.8054 7.7642C9.89063 7.90341 9.99858 7.99716 10.1293 8.04545C10.2628 8.09091 10.4034 8.11364 10.5511 8.11364C10.6619 8.11364 10.7528 8.10795 10.8239 8.09659C10.8949 8.08239 10.9517 8.07102 10.9943 8.0625L11.1989 8.96591C11.1307 8.99148 11.0355 9.01705 10.9134 9.04261C10.7912 9.07102 10.6364 9.08523 10.4489 9.08523C10.1648 9.08523 9.88636 9.02415 9.61364 8.90199C9.34375 8.77983 9.11932 8.59375 8.94034 8.34375C8.7642 8.09375 8.67614 7.77841 8.67614 7.39773V0.886364Z" fill="white"/>
</svg>
