<svg width="17" height="17" viewBox="0 0 17 17" fill="none" xmlns="http://www.w3.org/2000/svg">
<path id="Vector" d="M4.27691 13.4235L4.86618 13.7688C6.23335 14.564 7.8432 14.8344 9.39515 14.5296C10.9471 14.2247 12.3351 13.3655 13.2999 12.1123C14.2647 10.859 14.7405 9.29749 14.6383 7.71918C14.5361 6.14088 13.863 4.65371 12.7447 3.53534C11.6263 2.41698 10.1391 1.74387 8.56082 1.64169C6.98251 1.53952 5.42097 2.01526 4.16774 2.98009C2.91451 3.94492 2.05527 5.33289 1.75044 6.88484C1.44562 8.4368 1.71605 10.0467 2.51124 11.4138L2.85543 12.0031L2.32263 13.9574L4.27691 13.4246V13.4235ZM0.00392594 16.2793L1.10467 12.2343C0.110138 10.5254 -0.228378 8.51291 0.152338 6.57266C0.533054 4.63241 1.60697 2.89706 3.17355 1.69068C4.74012 0.4843 6.69224 -0.110633 8.66537 0.0169814C10.6385 0.144596 12.4977 0.986031 13.8958 2.38416C15.294 3.78228 16.1354 5.6415 16.263 7.61463C16.3906 9.58776 15.7957 11.5399 14.5893 13.1065C13.3829 14.673 11.6476 15.7469 9.70735 16.1277C7.7671 16.5084 5.7546 16.1699 4.04568 15.1753L0.00392594 16.2793ZM5.20397 4.31917C5.31284 4.31118 5.4221 4.31012 5.5311 4.31597L5.66324 4.32876C5.79217 4.34368 5.93496 4.42253 5.98291 4.53122C6.22586 5.08213 6.46242 5.63623 6.68939 6.19247C6.74054 6.31607 6.7107 6.47484 6.6148 6.62935C6.54767 6.73378 6.47628 6.83501 6.39955 6.93198C6.30791 7.04919 6.10971 7.26657 6.10971 7.26657C6.10971 7.26657 6.0298 7.36247 6.0607 7.48182C6.07135 7.52764 6.10972 7.59371 6.14381 7.64912L6.19176 7.7269C6.39955 8.07428 6.6798 8.42699 7.02185 8.75839C7.11882 8.85322 7.21366 8.95019 7.31702 9.04077C7.69836 9.37694 8.12977 9.65161 8.59572 9.85487L8.59892 9.85594C8.66818 9.88578 8.70334 9.90282 8.80457 9.94545C8.85466 9.96676 8.90687 9.98487 8.96015 9.99873C9.01474 10.0125 9.07219 10.0099 9.12528 9.99109C9.17837 9.97232 9.22472 9.93827 9.25851 9.89323C9.84778 9.17929 9.90212 9.13347 9.90639 9.13347V9.13454C9.94743 9.09643 9.99612 9.06749 10.0492 9.04967C10.1023 9.03185 10.1586 9.02554 10.2143 9.03118C10.2638 9.03334 10.3125 9.04416 10.3582 9.06315C10.7908 9.26134 11.4984 9.57036 11.4984 9.57036L11.9715 9.78348C12.0514 9.82077 12.1239 9.91135 12.126 9.99873C12.1292 10.052 12.1345 10.1404 12.1153 10.3024C12.092 10.5073 12.0407 10.7081 11.963 10.8991C11.9195 10.9894 11.8619 11.0721 11.7925 11.1442C11.71 11.2305 11.6198 11.309 11.5229 11.3787C11.4896 11.4038 11.4559 11.4284 11.4216 11.4522C11.3204 11.5161 11.216 11.5758 11.1094 11.6312C10.9 11.7425 10.6686 11.8065 10.4317 11.8187C10.2804 11.8262 10.1302 11.8379 9.97885 11.8294L9.51638 11.7591C8.35921 11.4546 7.28906 10.8843 6.39103 10.0936C6.20668 9.93159 6.03726 9.75791 5.8625 9.58422C5.1379 8.86388 4.59126 8.08601 4.2588 7.35182C4.08876 6.99152 3.99688 6.59932 3.98921 6.20099C3.98625 5.70725 4.14784 5.22659 4.44847 4.83491C4.50814 4.75819 4.56462 4.67827 4.66159 4.58663C4.73167 4.5135 4.81209 4.45103 4.90028 4.40122C4.99458 4.35372 5.09752 4.32581 5.2029 4.31917H5.20397Z" fill="white"/>
</svg>
